<?xml version="1.0" encoding="utf-8"?>
<!-- Generator: Adobe Illustrator 27.1.1, SVG Export Plug-In . SVG Version: 6.00 Build 0)  -->
<svg version="1.1" xmlns="http://www.w3.org/2000/svg" xmlns:xlink="http://www.w3.org/1999/xlink" x="0px" y="0px"
	 viewBox="0 0 595.3 841.9" style="enable-background:new 0 0 595.3 841.9;" xml:space="preserve">
<style type="text/css">
	.st0{display:none;opacity:0.24;}
	.st1{fill:#FFD700;}
	.st2{fill:#FFFFFF;}
	.st3{fill:none;}
	.st4{fill:none;stroke:#FFD700;stroke-width:6;stroke-miterlimit:10;}
	.st5{fill:none;stroke:#FFD700;stroke-width:4;stroke-miterlimit:10;}
	.st6{fill:#00A1DF;}
</style>
<g id="Vrstva_1">
	<g id="Vrstva_1_00000082355722469012457010000015668724549050589849_" class="st0">
		
			<image style="display:inline;overflow:visible;enable-background:new    ;" width="2048" height="2048" xlink:href="29768D28.png"  transform="matrix(0.1302 0 0 0.1302 156.1309 149.3276)">
		</image>
	</g>
	<g id="Vrstva_3">
	</g>
	<g id="Vrstva_4">
	</g>
	<g id="Vrstva_5">
	</g>
</g>
<g id="Vrstva_2">
	<path class="st1" d="M468.4,432.9"/>
	<g>
		<path class="st2" d="M467.2,438c-3,10.9-6.9,21.6-10.9,32.1C459,459.1,462.9,448.4,467.2,438L467.2,438z"/>
	</g>
</g>
<g id="Vrstva_3_00000170971617082962979880000017317126263274492583_">
</g>
<g id="Vrstva_4_00000029034040470072370870000002471372998825767832_">
</g>
<g id="Vrstva_5_00000130642945979694300910000001925031513812849024_">
	<g>
		<g id="Vrstva_2_00000079484776124384921520000004901270236202467971_">
			<g>
				<g>
					<path class="st1" d="M164.9,314.6c4.5-9.1,11.6-17.6,21-22.1c4.6-2.3,9.7-4.2,14.9-5c5.2-0.8,10.5-0.6,15.7-0.1
						c14.3,1,27.6,8.3,37.6,18.2c15.6,15.1,23.6,38.4,18.3,59.8c-3.5,15.3-12,28.9-27,34.9c-10.6,4.3-22.3,4.6-33.5,2.4
						c-12.1-2.5-23-11.4-25.7-23.8c-1.3-5.4-1.3-11.3,0.5-16.6c2.3-6.2,6.5-12.3,12.8-15c5.8-2.4,11.8-1.9,17.2,0.5
						c5,2.3,8.4,7.2,10.1,12.1c0.1,0.1,0,0.3-0.1,0.3c-0.1,0-0.2,0-0.3-0.1c-2.9-5.9-8.6-10.6-15.4-10.9c-11.5-0.9-17.4,8-19,18.2
						c-1.2,8.1,1.9,16.7,8.1,22c6.4,5.4,14.8,7.1,23,7.2c13.4,0.4,26.6-3.9,34.8-14.9c7.4-10.9,10.8-24.5,9.4-37.6
						c-3-26.1-24.9-50.2-51.4-53.2c-6.6-0.8-13.3-1.1-19.7,0.5c-6.3,1.7-12.6,4.4-17.8,8.4c-5.3,4-9.7,9.2-13.1,14.9
						C165.2,315.1,164.7,314.9,164.9,314.6L164.9,314.6z"/>
				</g>
				<g>
					<path class="st3" d="M202.6,307.4"/>
				</g>
				<g>
					<path class="st1" d="M192.3,305c4.4,4.1,0,13.5-1.1,18.4c-2.8,10-6,20.1-9.2,30c-1.9,5.9-5.9,17.9-8,23.8
						c-2.6,7.9-5.5,15.8-7.1,23.7l-1.9-2.2l15,0.4l-1.5,1.6c-1-8.2-1.1-16.4-0.5-24.6c1.4-20.6,9.1-40,17.4-58.6
						c1.2-2.8,2.5-5.7,4.4-8.2c0.6-0.8,1.5-1.6,2.5-1.9c-2.1,3.5-3.9,6.9-5.2,10.8c-7.6,18.6-12.6,38.3-14.9,58.3
						c-0.8,8-1.1,16.1-0.9,24.2c0,0.8-0.7,1.5-1.5,1.4l-15,0.4c-1.2,0-2.1-1.1-1.9-2.2c1.6-8.4,4.4-16.3,7.2-24.3
						c4.9-13.9,11.7-33.6,16.4-47.4l2-5.9C190.7,317,194.2,311.1,192.3,305z"/>
				</g>
				<g>
					<path class="st1" d="M164.1,316.5c1.1-7.6,20.1-17.9,26.9-13.4c0.6,0.5,1.1,1.2,1.2,1.9c-0.5-0.5-1.1-0.9-1.6-1
						c-1.9-0.4-3.8,0.2-5.6,0.8c-2.5,0.9-4.9,2-7.4,3.1c-3.6,1.8-7.2,3.7-10.6,5.9C165.9,314.6,164.8,315.3,164.1,316.5L164.1,316.5
						z"/>
				</g>
				<g>
					<path class="st1" d="M218.4,317.8c-3-4.1-6.1-8-10.9-9.9c-1.5-0.6-3.1-1-4.8-0.5c0.6-0.8,1.5-1.2,2.4-1.5
						C211.8,304.7,218.2,311.3,218.4,317.8L218.4,317.8z"/>
				</g>
				<g>
					<path class="st1" d="M205.4,300.8c3-1.6,6.6,0.3,9,2.2c4.6,3.2,6.1,9.8,3.9,14.8c-0.1-2.1-0.4-4.1-0.9-6
						c-0.7-2.9-2.1-5.4-4.3-7.2C211,302.6,208.6,300.5,205.4,300.8L205.4,300.8z"/>
				</g>
				<g>
					<path class="st1" d="M232.2,295.6c-8.2-0.9-16.9-0.7-23.9,3.4c-1,0.5-2.1,0.9-2.9,1.8c0-0.6,0.3-1.3,0.7-1.8
						C211.4,292.5,225.2,291.8,232.2,295.6L232.2,295.6z"/>
				</g>
				<g>
					<path class="st1" d="M224.2,369.8c-4-5.2-10.2-6.3-15.1-1.9c-6,5.5-4.9,15.6-0.4,21.8c5.7,8,16.2,8.5,25.4,7.3l0.1,0
						c0.2,0,0.3,0.3,0.1,0.4c-14.4,6.8-30.5,2.8-34.5-13.9c-0.7-3.6-0.7-7.3,0.5-10.8c2-7,9.6-12.5,16.9-10.5c3.6,1,6.2,4,7.5,7.4
						C224.6,369.9,224.3,370,224.2,369.8L224.2,369.8z"/>
				</g>
			</g>
		</g>
		<g id="Vrstva_6_00000079472074175046974920000009809981301568745125_">
			<polyline class="st4" points="182.9,350.6 174,384.8 173.4,400.2 			"/>
			<line class="st5" x1="170.2" y1="385.9" x2="169" y2="400.2"/>
			<line class="st5" x1="177.4" y1="381.2" x2="177.4" y2="399.6"/>
		</g>
		<path class="st1" d="M196.5,310.1"/>
		<g>
			<path class="st1" d="M275.1,400.3h-0.6c-1.8-0.2-3.3-1-4.5-2.3c-1.2-1.4-1.8-3.2-1.9-5.3c0-1.9,0.5-3.8,1.5-5.8
				c1-2.3,1.9-3.5,2.7-3.5c0.3,0,0.5,0.1,0.8,0.4s0.4,0.6,0.4,1.1l-0.1,0.9c-0.1,1.7-0.5,2.7-1.2,3c-0.3,0.1-0.5,0.3-0.6,0.5
				c-0.1,0.2-0.3,0.6-0.4,1c-0.2,1.1-0.3,2.1-0.3,2.9c0,2.9,1.3,4.4,4,4.4c2.3,0,5.1-1,8.5-2.9c2.5-1.5,4.7-3,6.4-4.5
				c0.6-0.4,1.1-0.7,1.5-0.7c0.4,0,0.7,0.2,0.9,0.5c0.1,0.2,0.2,0.4,0.2,0.7c0,0.5-0.3,1-1,1.7c-2.8,2.4-5.8,4.4-8.8,5.9
				C279.6,399.6,277.1,400.3,275.1,400.3z M273.5,381.6c-0.8,0-1.3-0.5-1.3-1.6c0-0.4,0.1-0.8,0.2-1.2c0.1-0.4,0.3-0.7,0.6-0.9
				c0.3-0.2,0.6-0.4,1-0.4c0.4,0,0.7,0.1,0.9,0.4c0.2,0.3,0.3,0.8,0.3,1.5C275.2,380.9,274.6,381.6,273.5,381.6z"/>
			<path class="st1" d="M293,400.6c-0.5,0-0.9-0.1-1.4-0.3c-1.9-0.9-2.8-2.5-2.8-5c0-1.9,0.5-3.8,1.4-5.8c1.4-2.8,3-4.7,4.8-5.5
				c0.6-0.3,1.1-0.4,1.4-0.4s0.8-0.3,1.3-0.8c1.2-1.2,2.5-1.8,3.7-1.8c0.7,0,1.3,0.2,1.9,0.6c1.1,0.9,1.7,2.3,1.7,4
				c0,1.4-0.2,2.7-0.7,4s-1.2,2.7-2.2,4.2c1.7,0,3.3-0.4,5-1.2c1.2-0.6,2.4-1.3,3.5-2.4l0.6-0.6c0.3-0.3,0.7-0.4,1-0.4
				c0.3,0,0.5,0.1,0.7,0.4c0.2,0.2,0.3,0.5,0.3,0.7c0,0.4-0.2,0.8-0.6,1.3c-1.8,2-3.9,3.4-6.2,4.1c-1.8,0.6-3.4,0.8-4.9,0.8
				c-0.6,0-1,0-1.5-0.1l-1,1c-1.3,1.2-2.7,2.1-4.2,2.6C294.1,400.5,293.5,400.6,293,400.6z M293.1,397.8c0.5,0,1.1-0.2,1.8-0.6
				c0.7-0.4,1.5-0.9,2.3-1.6l0.3-0.3l-0.7-0.7c-1.2-1.4-1.8-3.2-1.8-5.2c0-0.8,0.1-1.6,0.3-2.4h-0.1c-1,1-1.9,2.4-2.6,4.4
				c-0.7,1.7-1,3.1-1,4.4C291.6,397.1,292.1,397.8,293.1,397.8z M299.3,393.2l0.9-1.5c1.4-2.2,2.1-4.2,2.1-6c0-0.4,0-0.7-0.1-1
				c-0.1-0.3-0.2-0.5-0.3-0.6c-0.1-0.1-0.3-0.2-0.4-0.2c-0.3,0-0.7,0.2-1.2,0.5s-0.9,0.8-1.2,1.3l-0.4,0.6c-0.7,0.8-1,1.8-1,2.8
				C297.7,390.5,298.2,391.9,299.3,393.2z"/>
			<path class="st1" d="M314.2,398.6c-0.8,0-1.5-0.3-2-0.8c-0.7-0.7-1-2.3-1-4.6c0-1.7,0.2-3.4,0.5-5.1c0.3-1.7,0.7-2.9,1.2-3.6
				c0.4-0.5,0.8-0.7,1.3-0.7c0.7,0,1,0.4,1,1.1c0,0.3-0.1,0.7-0.2,1.1c-0.4,1-0.7,2.2-0.9,3.5c-0.2,1.4-0.3,2.6-0.3,3.7
				c0,1.7,0.2,2.5,0.7,2.5c0.4,0,1.1-0.3,2.1-1c1-0.7,2-1.4,2.8-2.2c0.9-0.8,1.8-1.7,2.6-2.7c0.9-1,1.6-1.9,2.1-2.6
				c0.9-1.3,1.7-2,2.3-2c0.3,0,0.6,0.2,0.8,0.6c0.1,0.1,0.2,0.3,0.2,0.5c0,0.1,0,0.2,0,0.4c0,0.1-0.1,0.4-0.2,0.9
				c-0.1,0.5-0.2,0.8-0.2,1.1c0,0.2,0,0.3,0.1,0.5c0.1,0.1,0.1,0.2,0.2,0.4c0.1,0.1,0.1,0.2,0.2,0.3c0.4,0.6,0.9,0.8,1.5,0.8
				c0.8,0,1.7-0.2,2.5-0.7c0.5-0.3,1-0.4,1.4-0.4c0.7,0,1.1,0.4,1.2,1.2c0,0.5-0.3,0.9-0.9,1.4c-1.1,0.8-2.3,1.2-3.7,1.2
				c-1.2,0-2.2-0.3-3.1-0.9c-0.6-0.4-1-0.9-1.3-1.6l-2.4,2.6c-0.7,0.7-1.6,1.5-2.6,2.3c-1.1,0.9-1.9,1.5-2.6,1.9
				C316.1,398.3,315.1,398.6,314.2,398.6z"/>
			<path class="st1" d="M338.5,400.3H338c-1.8-0.2-3.3-1-4.5-2.3c-1.2-1.4-1.8-3.2-1.9-5.3c0-1.9,0.5-3.8,1.5-5.8
				c1-2.3,1.9-3.5,2.7-3.5c0.3,0,0.5,0.1,0.8,0.4s0.4,0.6,0.4,1.1l-0.1,0.9c-0.1,1.7-0.5,2.7-1.2,3c-0.3,0.1-0.5,0.3-0.6,0.5
				c-0.1,0.2-0.3,0.6-0.4,1c-0.2,1.1-0.3,2.1-0.3,2.9c0,2.9,1.3,4.4,4,4.4c2.3,0,5.1-1,8.5-2.9c2.5-1.5,4.7-3,6.4-4.5
				c0.6-0.4,1.1-0.7,1.5-0.7c0.4,0,0.7,0.2,0.9,0.5c0.1,0.2,0.2,0.4,0.2,0.7c0,0.5-0.3,1-1,1.7c-2.8,2.4-5.8,4.4-8.8,5.9
				C343,399.6,340.5,400.3,338.5,400.3z M336.9,381.6c-0.8,0-1.3-0.5-1.3-1.6c0-0.4,0.1-0.8,0.2-1.2c0.1-0.4,0.3-0.7,0.6-0.9
				c0.3-0.2,0.6-0.4,1-0.4c0.4,0,0.7,0.1,0.9,0.4c0.2,0.3,0.3,0.8,0.3,1.5C338.6,380.9,338,381.6,336.9,381.6z"/>
			<path class="st1" d="M357.2,412.7c-0.7,0-1.1-0.5-1.4-1.4V411c0-1.2,0.6-2.8,1.7-5c0.5-0.8,0.7-1.5,0.7-1.8
				c-0.1-0.9-0.5-1.7-1.1-2.3c-0.6-0.6-1.4-1.2-2.1-1.7c-2.3-1.4-3.4-3-3.4-4.8c0-1.4,0.4-2.8,1.2-4.4c2.2-4.4,5.4-7.7,9.6-9.9
				c1.4-0.8,2.8-1.2,4.1-1.2c0.7,0,1.3,0.1,1.9,0.4c0.6,0.4,0.9,0.8,0.9,1.3c0,0.3-0.1,0.6-0.3,0.9c-0.2,0.3-0.5,0.4-0.8,0.4
				c-0.3,0-0.5-0.1-0.8-0.3c-0.1-0.1-0.4-0.2-0.7-0.2c-0.6,0-1.4,0.2-2.5,0.7c-2.3,0.9-4.4,2.5-6.3,4.8c-1.9,2.3-3.1,4.6-3.6,7v0.2
				c0,0.5,0.3,1.1,0.9,1.6c0.6,0.6,1.3,1.1,2.1,1.7c1.3,0.9,2.3,1.9,3.1,2.9c1.9-2.5,4.1-5,6.6-7.3c3.2-3,5.2-4.8,5.8-5.1
				c0.2-0.1,0.4-0.1,0.6-0.1c0.4,0,0.7,0.1,0.9,0.3c0.2,0.2,0.4,0.5,0.4,0.9c0,0.4-0.2,0.8-0.6,1.2c-0.4,0.4-1.6,1.5-3.5,3.3
				c-2.6,2.3-4.9,4.6-6.8,7.1c-1.7,2.1-2.5,3.4-2.6,3.8C360.2,410.3,359,412.7,357.2,412.7z"/>
			<path class="st1" d="M362.8,426.2c-0.1,0-0.3-0.1-0.6-0.2c-0.5-0.3-0.8-0.7-0.8-1.3c0-0.4,0.1-0.9,0.3-1.5
				c0.3-0.8,1.2-3.6,2.7-8.6c5-15.9,9.4-29.7,13.3-41.1l2.2-6.6c0-0.1-1.1-0.1-3.3-0.1c-9.1,0-21,0.3-35.6,0.8
				c-2.7,0.1-4.6,0.1-5.9,0.1c-1.3,0-2.1-0.1-2.4-0.2c-0.6-0.2-0.8-0.6-0.8-1.2c0-0.3,0.1-0.6,0.3-0.8c0.4-0.4,1.1-0.7,2.2-0.9
				c1-0.3,2.1-0.4,3.1-0.4c0.5,0,0.8,0,1.1,0.1s0.4,0.1,0.5,0.1s0.2,0.1,0.3,0.2c0.1,0.1,0.2,0.2,0.4,0.3
				c17.9-0.5,31.6-0.8,41.2-0.8l0.2-0.8c3.9-11.1,6.4-18.1,7.6-21c1.6-4,3-6.1,4.4-6.1c0.2,0,0.5,0.1,0.7,0.2
				c0.8,0.1,1.2,1.2,1.2,3.3c0,4.9-2.1,12-6.4,21.3c-0.8,1.8-1.3,2.8-1.3,3c0,0.1,1.9,0.2,5.7,0.3c5.7,0.1,11.4,0.3,17,0.7
				c5.6,0.3,9.8,0.7,12.5,1.1c2.4,0.4,3.6,1,3.6,1.8c-0.1,0.6-0.3,0.9-0.5,1c-0.2,0.1-0.5,0.2-1,0.2c-0.5,0-1.3-0.1-2.3-0.2
				c-8-1.1-20.2-1.8-36.5-2c-0.8,1.8-2.2,4.8-4.1,9.1c-2.5,5.4-4.1,8.8-4.9,10.4c-0.6,1.2-1.1,2.4-1.7,3.6c-0.5,1.2-1.2,3-1.9,5.3
				c-1.2,3.5-4.2,12.9-8.9,28.3l-0.4,1.3c-0.2,0.6-0.5,0.9-0.7,1C363.2,426.2,363,426.2,362.8,426.2z M384.2,364.1
				c0.1,0,0.6-0.7,1.2-2.1c2.2-4.8,3.8-8.8,4.9-12.1c1.4-4,2-6.8,2-8.4c-0.5,0.7-1.9,4.4-4.3,11.1l-3.2,9c-0.5,1.4-0.7,2.2-0.7,2.4
				C384.1,364.1,384.1,364.1,384.2,364.1z"/>
			<path class="st1" d="M384.6,399.4c-0.8,0-1.5-0.2-2.2-0.5c-1.8-1-2.7-2.7-2.7-5.1c0-1.5,0.3-3,0.8-4.5c0.5-1.5,1.1-2.8,1.8-3.8
				c2.7-4.1,6.4-6.5,11.2-7.1l1-0.1c2,0,4,0.5,6,1.4s3.2,2.5,3.6,4.8v0.3c0,0.7-0.4,1.2-1.2,1.3c-0.4,0-0.7-0.1-0.9-0.4
				c-0.2-0.3-0.4-0.6-0.5-1c-0.2-0.8-0.7-1.5-1.5-2.3c-0.8-0.7-2.3-1.2-4.4-1.4h-0.6c-4,0-7.3,1.8-10,5.4c-1.7,2.6-2.5,5-2.5,7.1
				c0,0.7,0.1,1.3,0.3,1.8c0.4,0.8,1,1.2,1.8,1.2c0.9,0,2-0.4,3.1-1.1c1.2-0.7,2.2-1.5,3.2-2.4c1-0.8,1.6-1.5,2-2s0.7-0.8,0.9-1
				c0.2-0.2,0.5-0.4,0.7-0.4c0.2-0.1,0.5-0.1,0.7-0.1c0.5,0,0.9,0.1,1.1,0.4s0.4,0.8,0.6,1.5c0.3,2.1,1.3,3.1,2.9,3.1h0.4
				c2.7,0,6.1-1.5,10.1-4.6c0.8-0.6,1.5-0.9,1.9-0.9c0.7,0,1,0.3,1,1c0,0.4-0.3,1-0.8,1.7c-0.6,0.6-1.5,1.3-2.8,2.1
				c-3.4,2.3-6.6,3.4-9.5,3.4c-1,0-1.8-0.1-2.5-0.4c-1.4-0.7-2.4-1.9-2.9-3.4c-1.4,1.3-2.5,2.3-3.3,2.9
				C388.8,398.4,386.6,399.4,384.6,399.4z"/>
		</g>
		<g>
			<path class="st6" d="M166.4,411.1c2.9,0,4.7,0.6,6,1.8c1,1,1.7,2.4,1.7,4.4c0,2.4-1,4.3-2.6,5.5c-1.6,1.2-3.5,1.6-6,1.6h-4.8
				v-0.6c1.8-0.2,1.8-0.3,1.8-2v-8.1c0-1.8-0.2-1.8-1.8-2v-0.6H166.4z M164.4,421.7c0,1.5,0.7,2,2.2,2c3.7,0,5.6-2.5,5.6-6.1
				c0-2.2-0.8-3.9-2.4-4.9c-0.9-0.6-2.1-0.8-3.5-0.8c-0.9,0-1.4,0.1-1.6,0.3c-0.2,0.1-0.3,0.3-0.3,1.1V421.7z"/>
			<path class="st6" d="M190,411.7c-1.3,0.1-1.8,0.4-1.8,1.3c0,0.5-0.1,1.3-0.1,3.2v2.2c0,2.1-0.2,3.7-1.4,4.9c-1,1-2.3,1.3-3.8,1.3
				c-1.2,0-2.4-0.2-3.3-0.9c-1.2-0.9-1.8-2.3-1.8-4.7v-5.2c0-1.8-0.2-2-1.8-2.1v-0.6h5.4v0.6c-1.6,0.1-1.8,0.3-1.8,2.1v5.1
				c0,3,1.4,4.6,3.9,4.6c2.9,0,3.8-1.8,3.8-5.2v-2.1c0-1.9-0.1-2.7-0.1-3.2c-0.1-0.9-0.5-1.3-2-1.3v-0.6h4.9V411.7z"/>
			<path class="st6" d="M196.5,411.1c1.4,0,2.6,0.3,3.5,0.9c0.8,0.6,1.3,1.6,1.3,2.9c0,3-2.6,4.2-4.5,4.2c-0.2,0-0.4,0-0.6,0
				l-1.4-0.4v3.2c0,1.7,0.1,1.8,2,2v0.6h-5.6v-0.6c1.8-0.2,1.8-0.3,1.8-2v-8.1c0-1.8-0.2-1.9-1.8-2v-0.6H196.5z M194.8,418
				c0.2,0.1,0.8,0.3,1.5,0.3c1.4,0,3.1-0.7,3.1-3.3c0-2.2-1.5-3.1-3.2-3.1c-0.6,0-1,0.1-1.1,0.2c-0.2,0.1-0.2,0.4-0.2,0.9V418z"/>
			<path class="st6" d="M213.2,421c-0.1,0.6-0.7,2.8-0.9,3.4h-9.5v-0.6c1.9-0.2,2-0.3,2-2v-8.1c0-1.7-0.2-1.8-1.8-2v-0.6h5.5v0.6
				c-1.6,0.2-1.9,0.2-1.9,2v8.3c0,1.2,0.2,1.5,1.3,1.6c0,0,1.5,0,1.6,0c1,0,1.3-0.1,1.8-0.6c0.5-0.5,0.9-1.3,1.2-2.1L213.2,421z"/>
			<path class="st6" d="M225.2,421.2c-0.1,0.5-0.7,2.6-0.9,3.2h-9.9v-0.6c1.9-0.1,2-0.3,2-2v-8.1c0-1.8-0.2-1.9-1.8-2.1v-0.6h6.2
				c1.9,0,2.7,0,3,0c0,0.5,0.1,2,0.2,3.1l-0.6,0.1c-0.2-0.7-0.4-1.1-0.6-1.6c-0.3-0.7-0.8-0.8-2-0.8h-1.9c-0.6,0-0.7,0.1-0.7,0.7
				v4.5h2.3c1.5,0,1.6-0.3,1.9-1.7h0.6v4.2h-0.6c-0.3-1.5-0.4-1.7-1.9-1.7h-2.2v4.1c0,1.4,0.4,1.6,1.5,1.6h1.9
				c1.2,0,1.4-0.2,1.9-0.7c0.4-0.4,0.8-1.3,1.1-1.9L225.2,421.2z"/>
			<path class="st6" d="M232.9,424.4v-0.6c1.3-0.1,1.4-0.3,1-1c-0.5-0.8-1.4-2.3-2.6-4.3c-1,1.5-1.9,2.9-2.5,4.1
				c-0.5,0.9-0.3,1.1,1.1,1.2v0.6H225v-0.6c1.2-0.1,1.8-0.4,2.4-1.2c0.8-1,1.6-2.2,3.3-4.9c-1.1-1.7-2-3.2-2.7-4.2
				c-0.9-1.4-1.1-1.6-2.6-1.8v-0.6h5.1v0.6c-1.3,0.1-1.3,0.3-1,0.9c0.7,1.1,1.4,2.3,2.3,3.7c0.8-1.2,1.5-2.4,2.1-3.3
				c0.5-0.9,0.3-1.1-1-1.3v-0.6h4.7v0.6c-1.5,0.2-1.9,0.4-2.8,1.6c-0.7,1-1.1,1.6-2.5,3.7c1.1,1.7,2.1,3.4,3.1,4.9
				c1,1.6,1.4,1.8,2.9,1.9v0.6H232.9z"/>
			<path class="st6" d="M250.1,424.4v-0.6c1.3-0.2,1.5-0.4,1.2-1.1c-0.3-0.8-0.7-1.8-1.1-3.1h-4.4c-0.3,0.9-0.6,1.7-0.9,2.6
				c-0.4,1.3-0.2,1.5,1.5,1.7v0.6h-4.7v-0.6c1.3-0.2,1.6-0.3,2.3-2.1l4.2-10.7l0.7-0.1c1.3,3.5,2.7,7.4,4,10.9
				c0.7,1.8,0.8,1.9,2.3,2.1v0.6H250.1z M248.1,413.5c-0.7,1.8-1.3,3.6-2,5.2h3.8L248.1,413.5z"/>
			<path class="st6" d="M261.2,411.1c1.4,0,2.6,0.3,3.5,0.9c0.8,0.6,1.3,1.6,1.3,2.9c0,3-2.6,4.2-4.5,4.2c-0.2,0-0.4,0-0.6,0
				l-1.4-0.4v3.2c0,1.7,0.1,1.8,2,2v0.6H256v-0.6c1.8-0.2,1.8-0.3,1.8-2v-8.1c0-1.8-0.2-1.9-1.8-2v-0.6H261.2z M259.6,418
				c0.2,0.1,0.8,0.3,1.5,0.3c1.4,0,3.1-0.7,3.1-3.3c0-2.2-1.5-3.1-3.2-3.1c-0.6,0-1,0.1-1.1,0.2c-0.2,0.1-0.2,0.4-0.2,0.9V418z"/>
			<path class="st6" d="M273.7,424.4v-0.6c1.3-0.2,1.5-0.4,1.2-1.1c-0.3-0.8-0.7-1.8-1.1-3.1h-4.4c-0.3,0.9-0.6,1.7-0.9,2.6
				c-0.4,1.3-0.2,1.5,1.5,1.7v0.6h-4.7v-0.6c1.3-0.2,1.6-0.3,2.3-2.1l4.2-10.7l0.7-0.1c1.3,3.5,2.7,7.4,4,10.9
				c0.7,1.8,0.8,1.9,2.3,2.1v0.6H273.7z M271.7,413.5c-0.7,1.8-1.3,3.6-2,5.2h3.8L271.7,413.5z"/>
			<path class="st6" d="M291.7,424.6c-0.3,0-0.5,0-0.8,0c-1.5-0.1-2.3-0.5-3.2-1.8c-0.8-1-1.5-2.3-2.1-3.4c-0.4-0.7-0.7-0.8-1.7-0.8
				h-0.7v3.2c0,1.7,0.2,1.8,1.9,2v0.6h-5.5v-0.6c1.7-0.2,1.8-0.3,1.8-2v-8.1c0-1.7-0.2-1.8-1.8-2v-0.6h5.2c1.5,0,2.5,0.2,3.3,0.7
				c0.8,0.5,1.4,1.4,1.4,2.7c0,1.8-1.1,2.9-2.6,3.5c0.4,0.6,1.2,2,1.9,2.9c0.8,1.1,1.1,1.6,1.6,2.1c0.6,0.6,1,0.8,1.5,0.9
				L291.7,424.6z M284.1,417.9c1.1,0,1.7-0.2,2.2-0.6c0.8-0.6,1.1-1.4,1.1-2.5c0-2.2-1.4-3-3-3c-0.6,0-0.9,0.1-1.1,0.2
				c-0.2,0.1-0.2,0.3-0.2,0.9v5H284.1z"/>
			<path class="st6" d="M302.6,414.4c-0.2-0.7-0.4-1.3-0.7-1.7c-0.3-0.6-0.5-0.7-1.7-0.7h-2v9.9c0,1.6,0.2,1.8,2.1,1.9v0.6h-5.9
				v-0.6c1.9-0.1,2.1-0.3,2.1-1.9V412h-1.9c-1.1,0-1.4,0.1-1.8,0.7c-0.2,0.4-0.4,0.9-0.7,1.7h-0.6c0.1-1.2,0.2-2.5,0.3-3.7h0.5
				c0.3,0.5,0.5,0.5,1.1,0.5h8.1c0.6,0,0.7-0.1,1-0.5h0.5c0,1,0.1,2.4,0.2,3.6L302.6,414.4z"/>
			<path class="st6" d="M316.1,424.4v-0.6c1.7-0.2,1.7-0.3,1.7-2.5l0-8.3c-1.7,3.7-4.4,9.6-5.1,11.4h-0.5c-0.7-1.9-3-7.5-4.6-11.2
				c-0.3,7.1-0.4,8.8-0.4,9.1c0,1.1,0.5,1.3,1.9,1.4v0.6h-4.8v-0.6c1.2-0.1,1.7-0.4,1.8-1.5c0.1-0.9,0.1-1.6,0.7-9.1
				c0.1-1.1-0.1-1.4-1.9-1.6v-0.6h3.6l4.5,10.4l4.8-10.4h3.6v0.6c-1.8,0.2-2,0.4-1.9,1.8l0.1,7.8c0.1,2.2,0.1,2.3,1.9,2.5v0.6H316.1
				z"/>
			<path class="st6" d="M330.7,424.4v-0.6c1.3-0.2,1.5-0.4,1.2-1.1c-0.3-0.8-0.7-1.8-1.1-3.1h-4.4c-0.3,0.9-0.6,1.7-0.9,2.6
				c-0.4,1.3-0.2,1.5,1.5,1.7v0.6h-4.7v-0.6c1.3-0.2,1.6-0.3,2.3-2.1l4.2-10.7l0.7-0.1c1.3,3.5,2.7,7.4,4,10.9
				c0.7,1.8,0.8,1.9,2.3,2.1v0.6H330.7z M328.7,413.5c-0.7,1.8-1.3,3.6-2,5.2h3.8L328.7,413.5z M328.1,409.4l3.4-3.1
				c0.4,0.1,1.2,0.8,1.4,1.1l0,0.2l-4.4,2.4L328.1,409.4z"/>
			<path class="st6" d="M350.7,411.7c-1.3,0.1-1.7,0.3-1.8,1.3c0,0.7-0.1,1.5-0.1,3.4v8.2H348l-8.7-10.7v5.1c0,1.8,0.1,2.8,0.1,3.3
				c0,1,0.6,1.3,2,1.5v0.6h-5v-0.6c1.3-0.1,1.8-0.4,1.8-1.4c0.1-0.7,0.1-1.6,0.1-3.4v-5.2c0-0.6,0-0.9-0.4-1.3
				c-0.4-0.5-0.8-0.6-1.8-0.7v-0.6h3.1l8.7,10.3v-5c0-1.9,0-2.8-0.1-3.4c-0.1-0.9-0.5-1.2-2.2-1.3v-0.6h5V411.7z"/>
		</g>
		<g>
			<path class="st2" d="M195.2,315.2c-3,10.9-6.9,21.6-10.9,32.1C187,336.4,191,325.7,195.2,315.2L195.2,315.2z"/>
		</g>
		<g>
			<path class="st2" d="M200.9,290.7c3.2-0.6,6.4-0.9,9.7-1.1c6.5-0.2,13,1.3,19.3,2.9c3.1,0.7,6.4,1.8,9.3,3.3
				c8.8,4.6,15.7,12,21,20.2c1.7,2.8,3.4,5.6,4.5,8.6c-3.1-5.6-7.1-10.7-11.5-15.4c-6.6-6.9-14.4-12.8-23.8-14.9
				C220.1,291.6,210.7,290,200.9,290.7L200.9,290.7z"/>
		</g>
		<g>
			<path class="st1" d="M222.2,293.5c6.8-0.6,13.6,1.8,18.9,5.9c-3.1-1.1-6-2.7-9.2-3.6C229,295.1,225.1,294,222.2,293.5
				L222.2,293.5z"/>
		</g>
		<g>
			<path class="st2" d="M238.1,295.4c-18.3-5.4-39.3-8.2-56.3,2.5c-2.4,1.5-4.6,3.1-6.7,5c1.9-2.1,4.1-3.9,6.3-5.6
				c11.6-8.5,26.9-10,40.8-7.6C227.8,290.4,233.2,292.7,238.1,295.4L238.1,295.4z"/>
		</g>
	</g>
</g>
</svg>
